# AST/ASF file generated using VICON BodyLanguage
# -----------------------------------------------
:version 1.10
:name VICON
:units
  mass 1.0
  length 0.45
  angle deg
:documentation
   .ast/.asf automatically generated from VICON data using
   VICON BodyBuilder and BodyLanguage model FoxedUp or BRILLIANT.MOD
:root
   order TX TY TZ RX RY RZ
   axis XYZ
   position 0 0 0  
   orientation 0 0 0 
:bonedata
  begin
     id 1 
     name lhipjoint
     direction 0.645893 -0.654526 0.392961 
     length 2.38111 
     axis 0 0 0  XYZ
  end
  begin
     id 2 
     name lfemur
     direction 0.34202 -0.939693 0  
     length 6.6822  
     axis 0 0 20  XYZ
    dof rx ry rz
    limits (-160.0 20.0)
           (-70.0 70.0)
           (-60.0 70.0)
  end
  begin
     id 3 
     name ltibia
     direction 0.34202 -0.939693 0   
     length 6.93904   
     axis 0 0 20   XYZ
    dof rx
    limits (-10.0 170.0)
  end
  begin
     id 4 
     name lfoot
     direction 0.0694967 -0.190941 0.979138   
     length 2.13616   
     axis -90 7.62852e-016 20   XYZ
    dof rx rz
    limits (-45.0 90.0)
           (-70.0 20.0)
  end
  begin
     id 5 
     name ltoes
     direction 1.535e-011 -4.2202e-011 1   
     length 1.07536   
     axis -90 7.62852e-016 20   XYZ
    dof rx
    limits (-90.0 20.0)
  end
  begin
     id 6 
     name rhipjoint
     direction -0.700219 -0.612087 0.367481   
     length 2.54621  
     axis 0 0 0  XYZ 
  end
  begin
     id 7 
     name rfemur
     direction -0.34202 -0.939693 0   
     length 6.55353   
     axis 0 0 -20   XYZ
    dof rx ry rz
    limits (-160.0 20.0)
           (-70.0 70.0)
           (-70.0 60.0)
  end
  begin
     id 8 
     name rtibia
     direction -0.34202 -0.939693 0   
     length 6.8736   
     axis 0 0 -20   XYZ
    dof rx
    limits (-10.0 170.0)
 end
 begin
     id 9 
     name rfoot
     direction -0.0679995 -0.186827 0.980037   
     length 2.1218  
     axis -90 -7.62852e-016 -20   XYZ
    dof rx rz
    limits (-45.0 90.0)
           (-20.0 70.0)
  end
  begin
     id 10 
     name rtoes
     direction -1.53589e-011 -4.21772e-011 1   
     length 1.06864   
     axis -90 -7.62852e-016 -20   XYZ
    dof rx
    limits (-90.0 20.0)
  end
  begin
     id 11 
     name lowerback
     direction -0.0416607 0.996347 -0.0745409   
     length 2.12205   
     axis 0 0 0   XYZ
    dof rx ry rz
    limits (-20.0 45.0)
           (-30.0 30.0)
           (-30.0 30.0)
  end
  begin
     id 12 
     name upperback
     direction -0.000153993 0.999276 -0.0380568   
     length 2.12759   
     axis 0 0 0   XYZ
    dof rx ry rz
    limits (-20.0 45.0)
           (-30.0 30.0)
           (-30.0 30.0)
  end
  begin
     id 13 
     name thorax
     direction 0.0187671 0.999821 -0.00241421   
     length 2.13704   
     axis 0 0 0   XYZ
    dof rx ry rz
    limits (-20.0 45.0)
           (-30.0 30.0)
           (-30.0 30.0)
  end
  begin
     id 14 
     name lowerneck
     direction 0.0268157 0.964865 0.261374   
     length 1.65253   
     axis 0 0 0   XYZ
    dof rx ry rz
    limits (-20.0 45.0)
           (-30.0 30.0)
           (-30.0 30.0)
  end
  begin
     id 15 
     name upperneck
     direction 0.00263774 0.939908 -0.341418   
     length 1.72375   
     axis 0 0 0   XYZ
    dof rx ry rz
    limits (-20.0 45.0)
           (-30.0 30.0)
           (-30.0 30.0)
  end
  begin
     id 16
     name head
     direction -0.00526001 0.989001 -0.147818  
     length 1.74878  
     axis 0 0 0   XYZ
    dof rx ry rz
    limits (-20.0 45.0)
           (-30.0 30.0)
           (-30.0 30.0)
  end
  begin
     id 17 
     name lclavicle
     direction 0.881214 0.461162 -0.103884  
     length 3.25108  
     axis 0 0 0   XYZ
    dof ry rz
    limits (-20.0 10.0)
           (0.0 20.0)
  end
  begin
     id 18 
     name lhumerus
     direction 1 -4.4899e-011 3.38092e-027   
     length 4.87408   
     axis 180 -30 -90   XYZ
    dof rx ry rz
    limits (-60.0 90.0)
           (-90.0 90.0)
           (-90.0 90.0)
  end
  begin
     id 19
     name lradius
     direction 1 -4.48931e-011 9.96288e-027   
     length 2.76729   
     axis 180 -30 -90   XYZ
    dof rx
    limits (-10.0 170.0)
  end
  begin
     id 20
     name lwrist
     direction 1 -4.4896e-011 1.50617e-026   
     length 1.38364   
     axis -9.31234e-015 90 90   XYZ
    dof ry
    limits (-180.0 0.0)
 end
  begin
     id 21 
     name lhand
     direction 1 -4.49038e-011 3.01286e-026   
     length 0.98922   
     axis -1.92217e-014 90 90   XYZ
    dof rx rz
    limits (-90.0 90.0)
           (-45.0 45.0)
  end
  begin
     id 22 
     name lfingers
     direction 1 -4.49051e-011 6.02588e-026   
     length 0.797535   
     axis -3.84436e-014 90 90   XYZ
    dof rx
    limits (0.0 90.0)
  end
  begin
     id 23
     name lthumb
     direction 0.707107 -6.34901e-011 0.707107   
     length 1.14511   
     axis -90 45 2.19363e-014   XYZ
    dof rx rz
    limits (-45.0 45.0)
           (-45.0 45.0)
  end
  begin
     id 24 
     name rclavicle
     direction -0.893894 0.441652 -0.0767889   
     length 3.29361  
     axis 0 0 0   XYZ 
    dof ry rz
    limits (-10.0 20.0)
           (-20.0 0.0)
  end
  begin
     id 25 
     name rhumerus
     direction -1 -4.48945e-011 8.0491e-028  
     length 4.71404   
     axis 180 30 90   XYZ
    dof rx ry rz
    limits (-90.0 60.0)
           (-90.0 90.0)
           (-90.0 90.0)
  end
  begin
     id 26 
     name rradius
     direction -1 -4.48986e-011 9.27795e-027   
     length 2.83468   
     axis 180 30 90   XYZ
    dof rx
    limits (-10.0 170.0)
  end
  begin
     id 27 
     name rwrist
     direction -1 -4.49029e-011 1.5064e-026   
     length 1.41734   
     axis -9.31234e-015 -90 -90   XYZ
    dof ry
    limits (-180.0 0.0)
  end
  begin
     id 28
     name rhand
     direction -1 -4.48857e-011 3.01165e-026   
     length 0.868195   
     axis -1.92217e-014 -90 -90   XYZ
    dof rx rz
    limits (-90.0 90.0)
           (-45.0 45.0)
  end
  begin
     id 29
     name rfingers
     direction -1 -4.49048e-011 6.02585e-026   
     length 0.699961   
     axis -3.84436e-014 -90 -90   XYZ
    dof rx
    limits (0.0 90.0)
  end
  begin
     id 30
     name rthumb
     direction -0.707107 -6.34854e-011 0.707107   
     length 1.00501   
     axis -90 -45 -2.19363e-014   XYZ
    dof rx rz
    limits (-45.0 45.0)
           (-45.0 45.0)
  end
:hierarchy
  begin
    root lhipjoint rhipjoint lowerback
    lhipjoint lfemur
    lfemur ltibia
    ltibia lfoot
    lfoot ltoes
    rhipjoint rfemur
    rfemur rtibia
    rtibia rfoot
    rfoot rtoes
    lowerback upperback
    upperback thorax
    thorax lowerneck lclavicle rclavicle
    lowerneck upperneck
    upperneck head
    lclavicle lhumerus
    lhumerus lradius
    lradius lwrist
    lwrist lhand lthumb
    lhand lfingers
    rclavicle rhumerus
    rhumerus rradius
    rradius rwrist
    rwrist rhand rthumb
    rhand rfingers
  end

#!OML:ASF H:\ManfredObstacles\Project 1\Capture day 2\Session 1\male.ASF
:FULLY-SPECIFIED
:DEGREES
128
root 3.55411 14.2426 18.8655 -153.659 -35.9952 178.905
lowerback 33.3389 4.03076 -2.27982
upperback 18.4314 0.129086 1.09009
thorax 3.06472 -1.73177 2.2222
lowerneck -30.2222 -4.17059 -2.26903
upperneck 22.2814 -5.99133 3.87597
head 12.5692 -2.27758 0.718096
rclavicle -2.55003e-014 -4.33754e-015
rhumerus -15.7049 17.0551 -92.3676
rradius 87.9007
rwrist 34.0874
rhand -7.70659 -8.23897
rfingers 7.12502
rthumb 18.1911 -37.4083
lclavicle -2.55003e-014 -4.33754e-015
lhumerus -9.03802 -44.6179 82.8967
lradius 80.6236
lwrist -27.3112
lhand -16.9898 19.864
lfingers 7.12502
lthumb 9.24519 49.6413
rfemur -67.3341 10.9099 13.9962
rtibia 67.2077
rfoot -15.8349 -28.1654
rtoes -11.9592
lfemur -64.0818 -6.58803 -20.3227
ltibia 64.8104
lfoot -14.2964 26.8203
ltoes 15.1239
129
root 3.5658 14.2341 18.7956 -153.32 -36.2216 178.682
lowerback 33.4507 4.23168 -2.44207
upperback 18.5514 0.303887 1.21015
thorax 3.14424 -1.67492 2.38363
lowerneck -30.159 -4.35426 -2.48599
upperneck 22.1009 -6.22384 4.16039
head 12.514 -2.3608 0.818483
rclavicle -3.60794e-014 2.26118e-014
rhumerus -16.2246 16.9544 -92.3259
rradius 88.776
rwrist 34.1993
rhand -7.86687 -8.28738
rfingers 7.12502
rthumb 18.0369 -37.471
lclavicle -3.60794e-014 2.26118e-014
lhumerus -8.84441 -44.6679 82.9041
lradius 80.904
lwrist -26.9221
lhand -17.2154 19.8767
lfingers 7.12502
lthumb 9.02747 49.6636
rfemur -67.8462 10.8666 13.9135
rtibia 68.0286
rfoot -15.5665 -28.0107
rtoes -12.7386
lfemur -64.148 -6.54364 -20.3307
ltibia 64.9061
lfoot -14.5613 26.7668
ltoes 14.8702
130
root 3.57703 14.2284 18.7242 -153.005 -36.4007 178.486
lowerback 33.5614 4.37307 -2.41489
upperback 18.6681 0.455956 1.13636
thorax 3.22778 -1.59919 2.24828
lowerneck -30.0609 -4.49526 -2.48847
upperneck 21.9117 -6.51365 4.51364
head 12.449 -2.44212 0.899648
rclavicle -2.60408e-014 -1.0461e-014
rhumerus -16.7338 16.7044 -92.5762
rradius 89.6037
rwrist 34.32
rhand -8.0396 -8.34995
rfingers 7.12502
rthumb 17.8707 -37.5489
lclavicle -2.60408e-014 -1.0461e-014
lhumerus -8.62538 -44.8714 82.6029
lradius 81.2193
lwrist -26.5668
lhand -17.359 19.9672
lfingers 7.12502
lthumb 8.88897 49.76
rfemur -68.3979 10.8503 13.808
rtibia 68.89
rfoot -15.1974 -27.6752
rtoes -13.5652
lfemur -64.1745 -6.47619 -20.3172
ltibia 64.9745
lfoot -14.8221 26.7329
ltoes 14.6283
131
root 3.58723 14.2256 18.6517 -152.7 -36.5497 178.315
lowerback 33.6486 4.45776 -2.26525
upperback 18.7787 0.574083 0.939009
thorax 3.32042 -1.51963 1.92838
lowerneck -29.9332 -4.57635 -2.31864
upperneck 21.712 -6.79583 4.86746
head 12.37 -2.50734 0.954705
rclavicle -2.80286e-014 -4.10987e-014
rhumerus -17.2269 16.4163 -92.9944
rradius 90.4055
rwrist 34.372
rhand -8.25076 -8.4679
rfingers 7.12502
rthumb 17.6675 -37.6852
lclavicle -2.80286e-014 -4.10987e-014
lhumerus -8.39522 -45.1324 82.1289
lradius 81.5298
lwrist -26.2511
lhand -17.4503 20.0779
lfingers 7.12502
lthumb 8.80084 49.8744
rfemur -69.0063 10.8407 13.6756
rtibia 69.7938
rfoot -14.7816 -27.1343
rtoes -14.4777
lfemur -64.1791 -6.39807 -20.284
ltibia 65.0169
lfoot -15.0818 26.7214
ltoes 14.4113
132
root 3.59667 14.2246 18.5781 -152.413 -36.647 178.18
lowerback 33.7029 4.55252 -2.11853
upperback 18.887 0.706289 0.7329
thorax 3.42292 -1.43191 1.59731
lowerneck -29.7939 -4.63358 -2.10735
upperneck 21.5083 -7.05219 5.1907
head 12.2845 -2.56388 0.996197
rclavicle -8.34896e-015 -8.71174e-014
rhumerus -17.6774 16.1113 -93.4163
rradius 91.1921
rwrist 34.4194
rhand -8.52041 -8.60497
rfingers 7.12502
rthumb 17.408 -37.8455
lclavicle -8.34896e-015 -8.71174e-014
lhumerus -8.16733 -45.395 81.652
lradius 81.8355
lwrist -25.9699
lhand -17.495 20.1919
lfingers 7.12502
lthumb 8.75767 49.9902
rfemur -69.6787 10.8618 13.5143
rtibia 70.7355
rfoot -14.3549 -26.4228
rtoes -15.5584
lfemur -64.1678 -6.284 -20.2309
ltibia 65.046
lfoot -15.3331 26.7395
ltoes 14.1881
133
root 3.60452 14.2248 18.504 -152.13 -36.7335 178.059
lowerback 33.7379 4.59831 -1.89221
upperback 18.9845 0.803739 0.461776
thorax 3.52631 -1.34787 1.16627
lowerneck -29.6612 -4.66465 -1.8412
upperneck 21.3367 -7.30217 5.52962
head 12.2126 -2.61165 1.03554
rclavicle 2.08724e-014 3.37188e-014
rhumerus -18.1024 15.7718 -93.922
rradius 91.978
rwrist 34.543
rhand -8.8873 -8.73303
rfingers 7.12502
rthumb 17.0549 -38.0044
lclavicle 2.08724e-014 3.37188e-014
lhumerus -7.95592 -45.6829 81.1107
lradius 82.1249
lwrist -25.6396
lhand -17.547 20.2819
lfingers 7.12502
lthumb 8.70751 50.0823
rfemur -70.4042 10.861 13.3264
rtibia 71.7034
rfoot -13.9834 -25.5959
rtoes -16.8627
lfemur -64.1504 -6.17961 -20.1611
ltibia 65.0674
lfoot -15.5646 26.785
ltoes 13.9566
134
root 3.61096 14.2258 18.4291 -151.865 -36.8082 177.965
lowerback 33.7376 4.74282 -1.97633
upperback 19.0713 0.944464 0.495351
thorax 3.61539 -1.29114 1.20596
lowerneck -29.554 -4.71768 -1.87542
upperneck 21.198 -7.40374 5.71099
head 12.1547 -2.63994 1.0916
rclavicle -3.89618e-014 -2.00773e-014
rhumerus -18.521 15.7073 -93.9834
rradius 92.8266
rwrist 34.6749
rhand -9.32835 -8.82492
rfingers 7.12502
rthumb 16.6303 -38.1324
lclavicle -3.89618e-014 -2.00773e-014
lhumerus -7.86104 -45.6821 81.1184
lradius 82.3282
lwrist -25.3511
lhand -17.6322 20.3286
lfingers 7.12502
lthumb 8.62524 50.1324
rfemur -71.1672 10.8473 13.1233
rtibia 72.672
rfoot -13.6914 -24.7379
rtoes -18.3726
lfemur -64.1242 -6.07335 -20.0687
ltibia 65.0906
lfoot -15.7873 26.8467
ltoes 13.7169
135
root 3.61609 14.2271 18.3528 -151.622 -36.8749 177.899
lowerback 33.7153 4.86281 -2.05774
upperback 19.1484 1.05928 0.535847
thorax 3.70187 -1.24689 1.25885
lowerneck -29.4623 -4.75041 -1.91814
upperneck 21.0824 -7.46458 5.85746
head 12.1055 -2.65513 1.14329
rclavicle -5.00937e-014 3.55825e-014
rhumerus -18.9496 15.6574 -94.0475
rradius 93.7307
rwrist 34.9849
rhand -9.82614 -8.83751
rfingers 7.12502
rthumb 16.1511 -38.1846
lclavicle -5.00937e-014 3.55825e-014
lhumerus -7.81653 -45.6274 81.1844
lradius 82.4818
lwrist -25.0509
lhand -17.7508 20.3562
lfingers 7.12502
lthumb 8.51079 50.1647
rfemur -71.9563 10.8319 12.9015
rtibia 73.6121
rfoot -13.5061 -23.9469
rtoes -19.9388
lfemur -64.0878 -5.96332 -19.9506
ltibia 65.1156
lfoot -15.9939 26.928
ltoes 13.4637
136
root 3.61978 14.2282 18.2752 -151.394 -36.9429 177.859
lowerback 33.6751 4.95171 -2.09528
upperback 19.2149 1.15222 0.555524
thorax 3.78522 -1.20689 1.27329
lowerneck -29.4102 -4.77974 -1.94251
upperneck 21.015 -7.53018 5.99588
head 12.0816 -2.66999 1.18751
rclavicle -2.3059e-014 -7.35503e-015
rhumerus -19.4021 15.5742 -94.1562
rradius 94.7107
rwrist 35.4421
rhand -10.3131 -8.78243
rfingers 7.12502
rthumb 15.6821 -38.1669
lclavicle -2.3059e-014 -7.35503e-015
lhumerus -7.80283 -45.583 81.2411
lradius 82.5896
lwrist -24.7642
lhand -17.8832 20.3859
lfingers 7.12502
lthumb 8.38305 50.1995
rfemur -72.7687 10.7789 12.6797
rtibia 74.4987
rfoot -13.4292 -23.2973
rtoes -21.3708
lfemur -64.0476 -5.85198 -19.809
ltibia 65.143
lfoot -16.2 27.0148
ltoes 13.2216
137
root 3.62233 14.2303 18.1961 -151.167 -37.0285 177.826
lowerback 33.6053 5.00847 -2.0957
upperback 19.2778 1.22002 0.561321
thorax 3.87718 -1.17402 1.2609
lowerneck -29.4019 -4.78031 -1.87189
upperneck 20.9915 -7.58167 6.06995
head 12.0749 -2.67756 1.19432
rclavicle -1.78906e-014 -2.19657e-014
rhumerus -19.8683 15.4554 -94.2915
rradius 95.7587
rwrist 35.9988
rhand -10.7435 -8.69297
rfingers 7.12502
rthumb 15.2676 -38.1095
lclavicle -1.78906e-014 -2.19657e-014
lhumerus -7.80192 -45.5534 81.2749
lradius 82.6501
lwrist -24.5417
lhand -18.0287 20.4312
lfingers 7.12502
lthumb 8.24262 50.2504
rfemur -73.5965 10.6835 12.4404
rtibia 75.3055
rfoot -13.465 -22.8567
rtoes -22.4968
lfemur -63.9999 -5.75148 -19.6527
ltibia 65.1605
lfoot -16.3832 27.108
ltoes 12.9543
